<svg xmlns="http://www.w3.org/2000/svg" viewBox="0 0 960 600" role="img" aria-labelledby="title desc" font-family="Arial, 'Noto Sans KR', 'Malgun Gothic', sans-serif">
<title id="title">2026년 9월 2일 — 예측 곡선과 실측 출력</title>
<desc id="desc">앱 엔진이 계산한 LEDD 예측 곡선과 기록된 실측 출력을 겹친 하루 그래프. 아침 즉방형 75 뒤 5시간 고원, 오후 이상운동증 구간, 저녁 OFF 골, 확산정 50 이후 45분 만의 재점화, 투약 시점을 표시</desc>
<rect width="960" height="600" rx="28" fill="#f8fafc"/>
<text x="480" y="44" text-anchor="middle" font-size="22" font-weight="700" fill="#111827">2026년 9월 2일 — 예측 곡선과 실측 출력</text>
<text x="480" y="68" text-anchor="middle" font-size="13" fill="#475569">서방형 바닥 + 즉방형 보완 구조로 지낸 하루. 아침 고원 5시간, 저녁 골 뒤 확산정 재점화</text>
<rect x="463" y="120" width="137" height="320" fill="#fee2e2" opacity="0.7"/>
<rect x="736" y="120" width="41" height="320" fill="#e2e8f0" opacity="0.9"/>
<text x="531" y="138" text-anchor="middle" font-size="12" font-weight="700" fill="#991b1b">이상운동증 2h20</text>
<text x="758" y="138" text-anchor="middle" font-size="12" font-weight="700" fill="#475569">OFF</text>
<line x1="80" y1="120" x2="80" y2="440" stroke="#94a3b8" stroke-width="1.5"/><line x1="80" y1="440" x2="900" y2="440" stroke="#94a3b8" stroke-width="1.5"/>
<line x1="80" y1="440" x2="900" y2="440" stroke="#e2e8f0" stroke-width="1"/><text x="72" y="444" text-anchor="end" font-size="11" fill="#64748b">0</text><line x1="80" y1="360" x2="900" y2="360" stroke="#e2e8f0" stroke-width="1"/><text x="72" y="364" text-anchor="end" font-size="11" fill="#64748b">25</text><line x1="80" y1="280" x2="900" y2="280" stroke="#e2e8f0" stroke-width="1"/><text x="72" y="284" text-anchor="end" font-size="11" fill="#64748b">50</text><line x1="80" y1="200" x2="900" y2="200" stroke="#e2e8f0" stroke-width="1"/><text x="72" y="204" text-anchor="end" font-size="11" fill="#64748b">75</text><line x1="80" y1="120" x2="900" y2="120" stroke="#e2e8f0" stroke-width="1"/><text x="72" y="124" text-anchor="end" font-size="11" fill="#64748b">100</text><text x="80" y="460" text-anchor="middle" font-size="11" fill="#64748b">06:00</text><text x="189" y="460" text-anchor="middle" font-size="11" fill="#64748b">08:00</text><text x="299" y="460" text-anchor="middle" font-size="11" fill="#64748b">10:00</text><text x="408" y="460" text-anchor="middle" font-size="11" fill="#64748b">12:00</text><text x="517" y="460" text-anchor="middle" font-size="11" fill="#64748b">14:00</text><text x="627" y="460" text-anchor="middle" font-size="11" fill="#64748b">16:00</text><text x="736" y="460" text-anchor="middle" font-size="11" fill="#64748b">18:00</text><text x="845" y="460" text-anchor="middle" font-size="11" fill="#64748b">20:00</text><polyline points="80.0,337.6 107.3,321.6 134.7,264.0 162.0,216.0 189.3,126.4 216.7,129.6 244.0,148.8 271.3,168.0 298.7,187.2 326.0,200.0 353.3,216.0 380.7,228.8 408.0,238.4 435.3,248.0 462.7,200.0 490.0,177.6 517.3,184.0 544.7,193.6 572.0,206.4 599.3,219.2 626.7,228.8 654.0,238.4 681.3,248.0 708.7,257.6 736.0,251.2 763.3,212.8 790.7,177.6 818.0,120.0 845.3,132.8 872.7,148.8 900.0,168.0" fill="none" stroke="#2563eb" stroke-width="2.5" stroke-dasharray="7 4"/><polyline points="80.0,360.0 107.3,360.0 134.7,344.0 162.0,328.0 189.3,280.0 216.7,152.0 244.0,152.0 271.3,152.0 298.7,152.0 326.0,152.0 353.3,152.0 380.7,152.0 408.0,152.0 435.3,158.4 462.7,168.0 490.0,184.0 517.3,200.0 544.7,200.0 572.0,209.6 599.3,216.0 626.7,209.6 654.0,216.0 681.3,232.0 708.7,248.0 736.0,296.0 763.3,312.0 790.7,200.0 818.0,152.0 845.3,152.0 872.7,152.0 900.0,158.4" fill="none" stroke="#dc2626" stroke-width="3.5" stroke-linejoin="round"/><circle cx="80.0" cy="360.0" r="3" fill="#dc2626"/><circle cx="107.3" cy="360.0" r="3" fill="#dc2626"/><circle cx="134.7" cy="344.0" r="3" fill="#dc2626"/><circle cx="162.0" cy="328.0" r="3" fill="#dc2626"/><circle cx="189.3" cy="280.0" r="3" fill="#dc2626"/><circle cx="216.7" cy="152.0" r="3" fill="#dc2626"/><circle cx="244.0" cy="152.0" r="3" fill="#dc2626"/><circle cx="271.3" cy="152.0" r="3" fill="#dc2626"/><circle cx="298.7" cy="152.0" r="3" fill="#dc2626"/><circle cx="326.0" cy="152.0" r="3" fill="#dc2626"/><circle cx="353.3" cy="152.0" r="3" fill="#dc2626"/><circle cx="380.7" cy="152.0" r="3" fill="#dc2626"/><circle cx="408.0" cy="152.0" r="3" fill="#dc2626"/><circle cx="435.3" cy="158.4" r="3" fill="#dc2626"/><circle cx="462.7" cy="168.0" r="3" fill="#dc2626"/><circle cx="490.0" cy="184.0" r="3" fill="#dc2626"/><circle cx="517.3" cy="200.0" r="3" fill="#dc2626"/><circle cx="544.7" cy="200.0" r="3" fill="#dc2626"/><circle cx="572.0" cy="209.6" r="3" fill="#dc2626"/><circle cx="599.3" cy="216.0" r="3" fill="#dc2626"/><circle cx="626.7" cy="209.6" r="3" fill="#dc2626"/><circle cx="654.0" cy="216.0" r="3" fill="#dc2626"/><circle cx="681.3" cy="232.0" r="3" fill="#dc2626"/><circle cx="708.7" cy="248.0" r="3" fill="#dc2626"/><circle cx="736.0" cy="296.0" r="3" fill="#dc2626"/><circle cx="763.3" cy="312.0" r="3" fill="#dc2626"/><circle cx="790.7" cy="200.0" r="3" fill="#dc2626"/><circle cx="818.0" cy="152.0" r="3" fill="#dc2626"/><circle cx="845.3" cy="152.0" r="3" fill="#dc2626"/><circle cx="872.7" cy="152.0" r="3" fill="#dc2626"/><circle cx="900.0" cy="158.4" r="3" fill="#dc2626"/><line x1="80" y1="440" x2="80" y2="428" stroke="#7c3aed" stroke-width="2"/><polygon points="74,442 86,442 80,430" fill="#7c3aed"/><text x="80" y="476" text-anchor="middle" font-size="11" fill="#7c3aed">CR 100</text><text x="80" y="490" text-anchor="middle" font-size="11" fill="#7c3aed">+배경약</text><line x1="153" y1="440" x2="153" y2="428" stroke="#2563eb" stroke-width="2"/><polygon points="147,442 159,442 153,430" fill="#2563eb"/><text x="153" y="476" text-anchor="middle" font-size="11" fill="#2563eb">즉방 75</text><line x1="399" y1="440" x2="399" y2="428" stroke="#7c3aed" stroke-width="2"/><polygon points="393,442 405,442 399,430" fill="#7c3aed"/><text x="399" y="476" text-anchor="middle" font-size="11" fill="#7c3aed">CR 100</text><text x="399" y="490" text-anchor="middle" font-size="11" fill="#7c3aed">+라사길린</text><line x1="709" y1="440" x2="709" y2="428" stroke="#7c3aed" stroke-width="2"/><polygon points="703,442 715,442 709,430" fill="#7c3aed"/><text x="709" y="476" text-anchor="middle" font-size="11" fill="#7c3aed">CR 100</text><text x="709" y="490" text-anchor="middle" font-size="11" fill="#7c3aed">+아만타딘</text><line x1="777" y1="440" x2="777" y2="428" stroke="#2563eb" stroke-width="2"/><polygon points="771,442 783,442 777,430" fill="#2563eb"/><text x="777" y="476" text-anchor="middle" font-size="11" fill="#2563eb">확산정 50</text><text x="299" y="140" text-anchor="middle" font-size="12" font-weight="700" fill="#991b1b">고원 5시간 — 예측보다 튼튼</text><text x="862" y="122" text-anchor="middle" font-size="12" font-weight="700" fill="#991b1b">45분 만에 40→90</text><text x="206" y="274" text-anchor="start" font-size="11" fill="#1e40af">08:15 ON (예측과 15분 차)</text>
<g transform="translate(80,520)">
  <line x1="0" y1="8" x2="36" y2="8" stroke="#2563eb" stroke-width="2.5" stroke-dasharray="7 4"/><text x="44" y="12" font-size="12" fill="#333">예측 곡선 (약효일지 엔진, LEDD)</text>
  <line x1="250" y1="8" x2="286" y2="8" stroke="#dc2626" stroke-width="3.5"/><circle cx="268" cy="8" r="3" fill="#dc2626"/><text x="294" y="12" font-size="12" fill="#333">실측 출력 (0~100, 기록)</text>
  <rect x="470" y="1" width="14" height="14" rx="2" fill="#fee2e2"/><text x="490" y="12" font-size="12" fill="#333">이상운동증</text>
  <rect x="580" y="1" width="14" height="14" rx="2" fill="#e2e8f0"/><text x="600" y="12" font-size="12" fill="#333">OFF</text>
  <polygon points="650,16 662,16 656,4" fill="#7c3aed"/><text x="668" y="12" font-size="12" fill="#333">서방형</text>
  <polygon points="730,16 742,16 736,4" fill="#2563eb"/><text x="748" y="12" font-size="12" fill="#333">즉방형</text>
</g>
<text x="480" y="576" text-anchor="middle" font-size="11" fill="#888">환자 한 사람의 하루 기록(n=1). 예측 곡선은 앱 엔진의 추정치이며 혈중농도가 아니다. 특정 처방을 권하는 자료가 아니다.</text>
</svg>